<svg xmlns="http://www.w3.org/2000/svg" width="36" height="36" viewBox="0 0 36 36">
    <g fill="none" fill-rule="evenodd">
        <g fill="#252525" fill-rule="nonzero">
            <g>
                <g>
                    <path d="M11.25 7.5h21v3h-21v-3m0 12v-3h21v3h-21M6.75 6.75C7.993 6.75 9 7.757 9 9s-1.007 2.25-2.25 2.25S4.5 10.243 4.5 9s1.007-2.25 2.25-2.25m0 9C7.993 15.75 9 16.757 9 18s-1.007 2.25-2.25 2.25S4.5 19.243 4.5 18s1.007-2.25 2.25-2.25m4.5 12.75v-3h21v3h-21m-4.5-3.75C7.993 24.75 9 25.757 9 27s-1.007 2.25-2.25 2.25S4.5 28.243 4.5 27s1.007-2.25 2.25-2.25z" transform="translate(-40 -670) translate(24 654) translate(16 16)"/>
                </g>
            </g>
        </g>
    </g>
</svg>
